<mxfile host="app.diagrams.net" modified="2021-12-13T00:38:30.403Z" agent="5.0 (Windows NT 10.0; Win64; x64) AppleWebKit/537.36 (KHTML, like Gecko) Chrome/96.0.4664.45 Safari/537.36 OPR/82.0.4227.23" etag="pnyve-_FOJ2psySlNqjs" version="15.9.4" type="github">
  <diagram id="R2lEEEUBdFMjLlhIrx00" name="Page-1">
    <mxGraphModel dx="2824" dy="1091" grid="1" gridSize="10" guides="1" tooltips="1" connect="1" arrows="1" fold="1" page="1" pageScale="1" pageWidth="850" pageHeight="1100" math="0" shadow="0" extFonts="Permanent Marker^https://fonts.googleapis.com/css?family=Permanent+Marker">
      <root>
        <mxCell id="0" />
        <mxCell id="1" parent="0" />
        <mxCell id="aYr2zcl_cZT3gbwT4TpR-2" value="Contrato" style="whiteSpace=wrap;html=1;align=center;" vertex="1" parent="1">
          <mxGeometry x="450" y="210" width="100" height="40" as="geometry" />
        </mxCell>
        <mxCell id="aYr2zcl_cZT3gbwT4TpR-3" value="Tiene" style="shape=rhombus;perimeter=rhombusPerimeter;whiteSpace=wrap;html=1;align=center;" vertex="1" parent="1">
          <mxGeometry x="650" y="200" width="120" height="60" as="geometry" />
        </mxCell>
        <mxCell id="aYr2zcl_cZT3gbwT4TpR-4" value="Estados de contrato" style="whiteSpace=wrap;html=1;align=center;" vertex="1" parent="1">
          <mxGeometry x="835" y="160" width="100" height="40" as="geometry" />
        </mxCell>
        <mxCell id="aYr2zcl_cZT3gbwT4TpR-5" value="Tipos de contrato" style="whiteSpace=wrap;html=1;align=center;" vertex="1" parent="1">
          <mxGeometry x="845" y="300" width="100" height="40" as="geometry" />
        </mxCell>
        <mxCell id="aYr2zcl_cZT3gbwT4TpR-14" value="ID_Contrato&lt;br&gt;" style="ellipse;whiteSpace=wrap;html=1;align=center;fontStyle=4;" vertex="1" parent="1">
          <mxGeometry x="520" y="300" width="100" height="40" as="geometry" />
        </mxCell>
        <mxCell id="aYr2zcl_cZT3gbwT4TpR-15" value="Fecha de termino" style="ellipse;whiteSpace=wrap;html=1;align=center;" vertex="1" parent="1">
          <mxGeometry x="410" y="300" width="100" height="40" as="geometry" />
        </mxCell>
        <mxCell id="aYr2zcl_cZT3gbwT4TpR-16" value="Fecha de inicio" style="ellipse;whiteSpace=wrap;html=1;align=center;" vertex="1" parent="1">
          <mxGeometry x="530" y="130" width="100" height="40" as="geometry" />
        </mxCell>
        <mxCell id="aYr2zcl_cZT3gbwT4TpR-17" value="Url Documento" style="ellipse;whiteSpace=wrap;html=1;align=center;" vertex="1" parent="1">
          <mxGeometry x="420" y="130" width="100" height="40" as="geometry" />
        </mxCell>
        <mxCell id="aYr2zcl_cZT3gbwT4TpR-20" value="Descripcion" style="ellipse;whiteSpace=wrap;html=1;align=center;" vertex="1" parent="1">
          <mxGeometry x="985" y="200" width="100" height="40" as="geometry" />
        </mxCell>
        <mxCell id="aYr2zcl_cZT3gbwT4TpR-21" value="Id Estado" style="ellipse;whiteSpace=wrap;html=1;align=center;fontStyle=4;" vertex="1" parent="1">
          <mxGeometry x="985" y="150" width="100" height="40" as="geometry" />
        </mxCell>
        <mxCell id="aYr2zcl_cZT3gbwT4TpR-22" value="Nombre" style="ellipse;whiteSpace=wrap;html=1;align=center;" vertex="1" parent="1">
          <mxGeometry x="985" y="270" width="100" height="40" as="geometry" />
        </mxCell>
        <mxCell id="aYr2zcl_cZT3gbwT4TpR-23" value="Id tipo" style="ellipse;whiteSpace=wrap;html=1;align=center;fontStyle=4;" vertex="1" parent="1">
          <mxGeometry x="985" y="330" width="100" height="40" as="geometry" />
        </mxCell>
        <mxCell id="aYr2zcl_cZT3gbwT4TpR-24" value="" style="endArrow=none;html=1;rounded=0;exitX=0;exitY=0.5;exitDx=0;exitDy=0;entryX=1;entryY=0.5;entryDx=0;entryDy=0;" edge="1" parent="1" source="aYr2zcl_cZT3gbwT4TpR-23" target="aYr2zcl_cZT3gbwT4TpR-5">
          <mxGeometry relative="1" as="geometry">
            <mxPoint x="775" y="420" as="sourcePoint" />
            <mxPoint x="935" y="420" as="targetPoint" />
          </mxGeometry>
        </mxCell>
        <mxCell id="aYr2zcl_cZT3gbwT4TpR-26" value="" style="endArrow=none;html=1;rounded=0;exitX=0;exitY=0.5;exitDx=0;exitDy=0;entryX=1;entryY=0.5;entryDx=0;entryDy=0;" edge="1" parent="1" source="aYr2zcl_cZT3gbwT4TpR-21" target="aYr2zcl_cZT3gbwT4TpR-4">
          <mxGeometry relative="1" as="geometry">
            <mxPoint x="715" y="490" as="sourcePoint" />
            <mxPoint x="875" y="490" as="targetPoint" />
          </mxGeometry>
        </mxCell>
        <mxCell id="aYr2zcl_cZT3gbwT4TpR-29" value="" style="endArrow=none;html=1;rounded=0;entryX=1;entryY=0.5;entryDx=0;entryDy=0;exitX=0;exitY=0.5;exitDx=0;exitDy=0;" edge="1" parent="1" source="aYr2zcl_cZT3gbwT4TpR-3" target="aYr2zcl_cZT3gbwT4TpR-2">
          <mxGeometry relative="1" as="geometry">
            <mxPoint x="520" y="400" as="sourcePoint" />
            <mxPoint x="680" y="400" as="targetPoint" />
          </mxGeometry>
        </mxCell>
        <mxCell id="aYr2zcl_cZT3gbwT4TpR-30" value="1" style="resizable=0;html=1;align=right;verticalAlign=bottom;" connectable="0" vertex="1" parent="aYr2zcl_cZT3gbwT4TpR-29">
          <mxGeometry x="1" relative="1" as="geometry" />
        </mxCell>
        <mxCell id="aYr2zcl_cZT3gbwT4TpR-31" value="" style="endArrow=none;html=1;rounded=0;exitX=1;exitY=0.5;exitDx=0;exitDy=0;entryX=0;entryY=0.5;entryDx=0;entryDy=0;" edge="1" parent="1" source="aYr2zcl_cZT3gbwT4TpR-3" target="aYr2zcl_cZT3gbwT4TpR-4">
          <mxGeometry relative="1" as="geometry">
            <mxPoint x="725" y="119.5" as="sourcePoint" />
            <mxPoint x="885" y="119.5" as="targetPoint" />
          </mxGeometry>
        </mxCell>
        <mxCell id="aYr2zcl_cZT3gbwT4TpR-32" value="N" style="resizable=0;html=1;align=right;verticalAlign=bottom;" connectable="0" vertex="1" parent="aYr2zcl_cZT3gbwT4TpR-31">
          <mxGeometry x="1" relative="1" as="geometry" />
        </mxCell>
        <mxCell id="aYr2zcl_cZT3gbwT4TpR-33" value="" style="endArrow=none;html=1;rounded=0;entryX=0;entryY=0.5;entryDx=0;entryDy=0;exitX=1;exitY=0.5;exitDx=0;exitDy=0;" edge="1" parent="1" source="aYr2zcl_cZT3gbwT4TpR-3" target="aYr2zcl_cZT3gbwT4TpR-5">
          <mxGeometry relative="1" as="geometry">
            <mxPoint x="725" y="120" as="sourcePoint" />
            <mxPoint x="745" y="310" as="targetPoint" />
          </mxGeometry>
        </mxCell>
        <mxCell id="aYr2zcl_cZT3gbwT4TpR-34" value="N" style="resizable=0;html=1;align=right;verticalAlign=bottom;" connectable="0" vertex="1" parent="aYr2zcl_cZT3gbwT4TpR-33">
          <mxGeometry x="1" relative="1" as="geometry" />
        </mxCell>
        <mxCell id="aYr2zcl_cZT3gbwT4TpR-35" value="" style="endArrow=none;html=1;rounded=0;exitX=0;exitY=0.5;exitDx=0;exitDy=0;entryX=1;entryY=0.5;entryDx=0;entryDy=0;" edge="1" parent="1" source="aYr2zcl_cZT3gbwT4TpR-20" target="aYr2zcl_cZT3gbwT4TpR-4">
          <mxGeometry relative="1" as="geometry">
            <mxPoint x="985" y="219.5" as="sourcePoint" />
            <mxPoint x="1145" y="219.5" as="targetPoint" />
          </mxGeometry>
        </mxCell>
        <mxCell id="aYr2zcl_cZT3gbwT4TpR-36" value="" style="endArrow=none;html=1;rounded=0;exitX=1;exitY=0.5;exitDx=0;exitDy=0;entryX=0;entryY=0.5;entryDx=0;entryDy=0;" edge="1" parent="1" source="aYr2zcl_cZT3gbwT4TpR-5" target="aYr2zcl_cZT3gbwT4TpR-22">
          <mxGeometry relative="1" as="geometry">
            <mxPoint x="735" y="510" as="sourcePoint" />
            <mxPoint x="895" y="510" as="targetPoint" />
          </mxGeometry>
        </mxCell>
        <mxCell id="aYr2zcl_cZT3gbwT4TpR-37" value="" style="endArrow=none;html=1;rounded=0;exitX=0.5;exitY=1;exitDx=0;exitDy=0;entryX=0.5;entryY=0;entryDx=0;entryDy=0;" edge="1" parent="1" source="aYr2zcl_cZT3gbwT4TpR-16" target="aYr2zcl_cZT3gbwT4TpR-2">
          <mxGeometry relative="1" as="geometry">
            <mxPoint x="900" y="140" as="sourcePoint" />
            <mxPoint x="810" y="180" as="targetPoint" />
            <Array as="points" />
          </mxGeometry>
        </mxCell>
        <mxCell id="aYr2zcl_cZT3gbwT4TpR-38" value="" style="endArrow=none;html=1;rounded=0;exitX=0.5;exitY=1;exitDx=0;exitDy=0;entryX=0.5;entryY=0;entryDx=0;entryDy=0;" edge="1" parent="1" source="aYr2zcl_cZT3gbwT4TpR-17" target="aYr2zcl_cZT3gbwT4TpR-2">
          <mxGeometry relative="1" as="geometry">
            <mxPoint x="910" y="150" as="sourcePoint" />
            <mxPoint x="820" y="190" as="targetPoint" />
          </mxGeometry>
        </mxCell>
        <mxCell id="aYr2zcl_cZT3gbwT4TpR-39" value="" style="endArrow=none;html=1;rounded=0;exitX=0.5;exitY=0;exitDx=0;exitDy=0;entryX=0.5;entryY=1;entryDx=0;entryDy=0;" edge="1" parent="1" source="aYr2zcl_cZT3gbwT4TpR-15" target="aYr2zcl_cZT3gbwT4TpR-2">
          <mxGeometry relative="1" as="geometry">
            <mxPoint x="920" y="160" as="sourcePoint" />
            <mxPoint x="830" y="200" as="targetPoint" />
          </mxGeometry>
        </mxCell>
        <mxCell id="aYr2zcl_cZT3gbwT4TpR-40" value="" style="endArrow=none;html=1;rounded=0;exitX=0.5;exitY=0;exitDx=0;exitDy=0;entryX=0.5;entryY=1;entryDx=0;entryDy=0;" edge="1" parent="1" source="aYr2zcl_cZT3gbwT4TpR-14" target="aYr2zcl_cZT3gbwT4TpR-2">
          <mxGeometry relative="1" as="geometry">
            <mxPoint x="930" y="170" as="sourcePoint" />
            <mxPoint x="840" y="210" as="targetPoint" />
          </mxGeometry>
        </mxCell>
        <mxCell id="aYr2zcl_cZT3gbwT4TpR-41" value="Relationship" style="shape=rhombus;perimeter=rhombusPerimeter;whiteSpace=wrap;html=1;align=center;" vertex="1" parent="1">
          <mxGeometry x="250" y="200" width="120" height="60" as="geometry" />
        </mxCell>
        <mxCell id="aYr2zcl_cZT3gbwT4TpR-42" value="Usuario" style="rounded=1;arcSize=10;whiteSpace=wrap;html=1;align=center;" vertex="1" parent="1">
          <mxGeometry x="110" y="210" width="100" height="40" as="geometry" />
        </mxCell>
        <mxCell id="aYr2zcl_cZT3gbwT4TpR-43" value="Tiene" style="shape=rhombus;perimeter=rhombusPerimeter;whiteSpace=wrap;html=1;align=center;" vertex="1" parent="1">
          <mxGeometry x="50" y="440" width="120" height="60" as="geometry" />
        </mxCell>
        <mxCell id="aYr2zcl_cZT3gbwT4TpR-44" value="Tipos de usuarios" style="whiteSpace=wrap;html=1;align=center;" vertex="1" parent="1">
          <mxGeometry x="10" y="560" width="100" height="40" as="geometry" />
        </mxCell>
        <mxCell id="aYr2zcl_cZT3gbwT4TpR-45" value="Estados de usuario" style="whiteSpace=wrap;html=1;align=center;" vertex="1" parent="1">
          <mxGeometry x="160" y="560" width="100" height="40" as="geometry" />
        </mxCell>
        <mxCell id="aYr2zcl_cZT3gbwT4TpR-46" value="" style="endArrow=none;html=1;rounded=0;entryX=0.5;entryY=1;entryDx=0;entryDy=0;exitX=1;exitY=0.5;exitDx=0;exitDy=0;" edge="1" parent="1" source="aYr2zcl_cZT3gbwT4TpR-43" target="aYr2zcl_cZT3gbwT4TpR-42">
          <mxGeometry relative="1" as="geometry">
            <mxPoint x="100" y="510" as="sourcePoint" />
            <mxPoint x="260" y="510" as="targetPoint" />
          </mxGeometry>
        </mxCell>
        <mxCell id="aYr2zcl_cZT3gbwT4TpR-47" value="1" style="resizable=0;html=1;align=right;verticalAlign=bottom;" connectable="0" vertex="1" parent="aYr2zcl_cZT3gbwT4TpR-46">
          <mxGeometry x="1" relative="1" as="geometry" />
        </mxCell>
        <mxCell id="aYr2zcl_cZT3gbwT4TpR-48" value="" style="endArrow=none;html=1;rounded=0;exitX=0.5;exitY=1;exitDx=0;exitDy=0;entryX=0.5;entryY=0;entryDx=0;entryDy=0;" edge="1" parent="1" source="aYr2zcl_cZT3gbwT4TpR-43" target="aYr2zcl_cZT3gbwT4TpR-44">
          <mxGeometry relative="1" as="geometry">
            <mxPoint x="70" y="500" as="sourcePoint" />
            <mxPoint x="230" y="500" as="targetPoint" />
          </mxGeometry>
        </mxCell>
        <mxCell id="aYr2zcl_cZT3gbwT4TpR-49" value="N" style="resizable=0;html=1;align=right;verticalAlign=bottom;" connectable="0" vertex="1" parent="aYr2zcl_cZT3gbwT4TpR-48">
          <mxGeometry x="1" relative="1" as="geometry" />
        </mxCell>
        <mxCell id="aYr2zcl_cZT3gbwT4TpR-55" value="" style="edgeStyle=entityRelationEdgeStyle;fontSize=12;html=1;endArrow=ERmandOne;startArrow=ERmandOne;rounded=0;entryX=0;entryY=0.5;entryDx=0;entryDy=0;exitX=1;exitY=0.5;exitDx=0;exitDy=0;" edge="1" parent="1" source="aYr2zcl_cZT3gbwT4TpR-41" target="aYr2zcl_cZT3gbwT4TpR-2">
          <mxGeometry width="100" height="100" relative="1" as="geometry">
            <mxPoint x="140" y="670" as="sourcePoint" />
            <mxPoint x="240" y="570" as="targetPoint" />
          </mxGeometry>
        </mxCell>
        <mxCell id="aYr2zcl_cZT3gbwT4TpR-56" value="" style="edgeStyle=entityRelationEdgeStyle;fontSize=12;html=1;endArrow=ERmandOne;startArrow=ERmandOne;rounded=0;entryX=0;entryY=0.5;entryDx=0;entryDy=0;exitX=1;exitY=0.5;exitDx=0;exitDy=0;" edge="1" parent="1" source="aYr2zcl_cZT3gbwT4TpR-42" target="aYr2zcl_cZT3gbwT4TpR-41">
          <mxGeometry width="100" height="100" relative="1" as="geometry">
            <mxPoint x="380" y="240" as="sourcePoint" />
            <mxPoint x="460" y="240" as="targetPoint" />
          </mxGeometry>
        </mxCell>
        <mxCell id="aYr2zcl_cZT3gbwT4TpR-57" value="IdTipo" style="ellipse;whiteSpace=wrap;html=1;align=center;fontStyle=4;" vertex="1" parent="1">
          <mxGeometry x="-50" y="640" width="100" height="40" as="geometry" />
        </mxCell>
        <mxCell id="aYr2zcl_cZT3gbwT4TpR-58" value="Nombre" style="ellipse;whiteSpace=wrap;html=1;align=center;" vertex="1" parent="1">
          <mxGeometry x="60" y="640" width="100" height="40" as="geometry" />
        </mxCell>
        <mxCell id="aYr2zcl_cZT3gbwT4TpR-59" value="IdEstado" style="ellipse;whiteSpace=wrap;html=1;align=center;fontStyle=4;" vertex="1" parent="1">
          <mxGeometry x="170" y="640" width="100" height="40" as="geometry" />
        </mxCell>
        <mxCell id="aYr2zcl_cZT3gbwT4TpR-60" value="Descripcion" style="ellipse;whiteSpace=wrap;html=1;align=center;" vertex="1" parent="1">
          <mxGeometry x="290" y="640" width="100" height="40" as="geometry" />
        </mxCell>
        <mxCell id="aYr2zcl_cZT3gbwT4TpR-61" value="" style="endArrow=none;html=1;rounded=0;exitX=1;exitY=0.5;exitDx=0;exitDy=0;entryX=0.5;entryY=0;entryDx=0;entryDy=0;" edge="1" parent="1" source="aYr2zcl_cZT3gbwT4TpR-45" target="aYr2zcl_cZT3gbwT4TpR-60">
          <mxGeometry relative="1" as="geometry">
            <mxPoint x="110" y="710" as="sourcePoint" />
            <mxPoint x="270" y="710" as="targetPoint" />
          </mxGeometry>
        </mxCell>
        <mxCell id="aYr2zcl_cZT3gbwT4TpR-62" value="" style="endArrow=none;html=1;rounded=0;exitX=1;exitY=0.5;exitDx=0;exitDy=0;entryX=1;entryY=0.5;entryDx=0;entryDy=0;" edge="1" parent="1" source="aYr2zcl_cZT3gbwT4TpR-45" target="aYr2zcl_cZT3gbwT4TpR-59">
          <mxGeometry relative="1" as="geometry">
            <mxPoint x="270" y="590" as="sourcePoint" />
            <mxPoint x="320" y="580" as="targetPoint" />
          </mxGeometry>
        </mxCell>
        <mxCell id="aYr2zcl_cZT3gbwT4TpR-63" value="" style="endArrow=none;html=1;rounded=0;exitX=0.5;exitY=1;exitDx=0;exitDy=0;entryX=0.5;entryY=0;entryDx=0;entryDy=0;" edge="1" parent="1" source="aYr2zcl_cZT3gbwT4TpR-44" target="aYr2zcl_cZT3gbwT4TpR-58">
          <mxGeometry relative="1" as="geometry">
            <mxPoint x="280" y="600" as="sourcePoint" />
            <mxPoint x="330" y="590" as="targetPoint" />
          </mxGeometry>
        </mxCell>
        <mxCell id="aYr2zcl_cZT3gbwT4TpR-64" value="" style="endArrow=none;html=1;rounded=0;exitX=0.5;exitY=1;exitDx=0;exitDy=0;entryX=0.5;entryY=0;entryDx=0;entryDy=0;" edge="1" parent="1" source="aYr2zcl_cZT3gbwT4TpR-44" target="aYr2zcl_cZT3gbwT4TpR-57">
          <mxGeometry relative="1" as="geometry">
            <mxPoint x="290" y="610" as="sourcePoint" />
            <mxPoint x="340" y="600" as="targetPoint" />
          </mxGeometry>
        </mxCell>
        <mxCell id="aYr2zcl_cZT3gbwT4TpR-65" value="IdUsuario" style="ellipse;whiteSpace=wrap;html=1;align=center;fontStyle=4;" vertex="1" parent="1">
          <mxGeometry x="-10" y="130" width="100" height="40" as="geometry" />
        </mxCell>
        <mxCell id="aYr2zcl_cZT3gbwT4TpR-66" value="Correo" style="ellipse;whiteSpace=wrap;html=1;align=center;" vertex="1" parent="1">
          <mxGeometry x="190" y="390" width="100" height="40" as="geometry" />
        </mxCell>
        <mxCell id="aYr2zcl_cZT3gbwT4TpR-67" value="Genero" style="ellipse;whiteSpace=wrap;html=1;align=center;" vertex="1" parent="1">
          <mxGeometry x="-10" y="290" width="100" height="40" as="geometry" />
        </mxCell>
        <mxCell id="aYr2zcl_cZT3gbwT4TpR-68" value="Fecha de nacimiento" style="ellipse;whiteSpace=wrap;html=1;align=center;direction=west;" vertex="1" parent="1">
          <mxGeometry y="390" width="100" height="40" as="geometry" />
        </mxCell>
        <mxCell id="aYr2zcl_cZT3gbwT4TpR-69" value="Apellido" style="ellipse;whiteSpace=wrap;html=1;align=center;" vertex="1" parent="1">
          <mxGeometry x="-10" y="190" width="100" height="40" as="geometry" />
        </mxCell>
        <mxCell id="aYr2zcl_cZT3gbwT4TpR-70" value="Nombre" style="ellipse;whiteSpace=wrap;html=1;align=center;" vertex="1" parent="1">
          <mxGeometry x="-10" y="340" width="100" height="40" as="geometry" />
        </mxCell>
        <mxCell id="aYr2zcl_cZT3gbwT4TpR-71" value="Num Documento" style="ellipse;whiteSpace=wrap;html=1;align=center;" vertex="1" parent="1">
          <mxGeometry x="-10" y="240" width="100" height="40" as="geometry" />
        </mxCell>
        <mxCell id="aYr2zcl_cZT3gbwT4TpR-72" value="Telefono" style="ellipse;whiteSpace=wrap;html=1;align=center;" vertex="1" parent="1">
          <mxGeometry x="200" y="340" width="100" height="40" as="geometry" />
        </mxCell>
        <mxCell id="aYr2zcl_cZT3gbwT4TpR-73" value="Passward" style="ellipse;whiteSpace=wrap;html=1;align=center;" vertex="1" parent="1">
          <mxGeometry x="200" y="290" width="100" height="40" as="geometry" />
        </mxCell>
        <mxCell id="aYr2zcl_cZT3gbwT4TpR-74" value="" style="endArrow=none;html=1;rounded=0;exitX=1;exitY=0.5;exitDx=0;exitDy=0;entryX=0;entryY=0.5;entryDx=0;entryDy=0;" edge="1" parent="1" source="aYr2zcl_cZT3gbwT4TpR-69" target="aYr2zcl_cZT3gbwT4TpR-42">
          <mxGeometry relative="1" as="geometry">
            <mxPoint x="90" y="460" as="sourcePoint" />
            <mxPoint x="140" y="500" as="targetPoint" />
          </mxGeometry>
        </mxCell>
        <mxCell id="aYr2zcl_cZT3gbwT4TpR-75" value="" style="endArrow=none;html=1;rounded=0;exitX=1;exitY=0.5;exitDx=0;exitDy=0;entryX=0;entryY=0.5;entryDx=0;entryDy=0;" edge="1" parent="1" source="aYr2zcl_cZT3gbwT4TpR-71" target="aYr2zcl_cZT3gbwT4TpR-42">
          <mxGeometry relative="1" as="geometry">
            <mxPoint x="100" y="470" as="sourcePoint" />
            <mxPoint x="150" y="510" as="targetPoint" />
          </mxGeometry>
        </mxCell>
        <mxCell id="aYr2zcl_cZT3gbwT4TpR-76" value="" style="endArrow=none;html=1;rounded=0;exitX=1;exitY=0.5;exitDx=0;exitDy=0;entryX=0;entryY=0.5;entryDx=0;entryDy=0;" edge="1" parent="1" source="aYr2zcl_cZT3gbwT4TpR-65" target="aYr2zcl_cZT3gbwT4TpR-42">
          <mxGeometry relative="1" as="geometry">
            <mxPoint x="100" y="220" as="sourcePoint" />
            <mxPoint x="120" y="240" as="targetPoint" />
          </mxGeometry>
        </mxCell>
        <mxCell id="aYr2zcl_cZT3gbwT4TpR-77" value="" style="endArrow=none;html=1;rounded=0;entryX=0;entryY=0.5;entryDx=0;entryDy=0;exitX=1;exitY=0.5;exitDx=0;exitDy=0;" edge="1" parent="1" source="aYr2zcl_cZT3gbwT4TpR-67" target="aYr2zcl_cZT3gbwT4TpR-42">
          <mxGeometry relative="1" as="geometry">
            <mxPoint x="100" y="280" as="sourcePoint" />
            <mxPoint x="120" y="240" as="targetPoint" />
          </mxGeometry>
        </mxCell>
        <mxCell id="aYr2zcl_cZT3gbwT4TpR-78" value="" style="endArrow=none;html=1;rounded=0;exitX=1;exitY=0.5;exitDx=0;exitDy=0;entryX=0;entryY=0.5;entryDx=0;entryDy=0;" edge="1" parent="1" source="aYr2zcl_cZT3gbwT4TpR-70" target="aYr2zcl_cZT3gbwT4TpR-42">
          <mxGeometry relative="1" as="geometry">
            <mxPoint x="100" y="160" as="sourcePoint" />
            <mxPoint x="170" y="180" as="targetPoint" />
          </mxGeometry>
        </mxCell>
        <mxCell id="aYr2zcl_cZT3gbwT4TpR-79" value="" style="endArrow=none;html=1;rounded=0;exitX=0.5;exitY=1;exitDx=0;exitDy=0;entryX=0;entryY=0.5;entryDx=0;entryDy=0;" edge="1" parent="1" source="aYr2zcl_cZT3gbwT4TpR-42" target="aYr2zcl_cZT3gbwT4TpR-73">
          <mxGeometry relative="1" as="geometry">
            <mxPoint x="100" y="160" as="sourcePoint" />
            <mxPoint x="150" y="140" as="targetPoint" />
          </mxGeometry>
        </mxCell>
        <mxCell id="aYr2zcl_cZT3gbwT4TpR-83" value="" style="endArrow=none;html=1;rounded=0;exitX=0.5;exitY=1;exitDx=0;exitDy=0;entryX=0;entryY=0.5;entryDx=0;entryDy=0;" edge="1" parent="1" source="aYr2zcl_cZT3gbwT4TpR-42" target="aYr2zcl_cZT3gbwT4TpR-68">
          <mxGeometry relative="1" as="geometry">
            <mxPoint x="120" y="240" as="sourcePoint" />
            <mxPoint x="124.64466094067257" y="164.14213562373106" as="targetPoint" />
          </mxGeometry>
        </mxCell>
        <mxCell id="aYr2zcl_cZT3gbwT4TpR-84" value="" style="endArrow=none;html=1;rounded=0;exitX=0.5;exitY=1;exitDx=0;exitDy=0;entryX=0;entryY=0.5;entryDx=0;entryDy=0;" edge="1" parent="1" source="aYr2zcl_cZT3gbwT4TpR-42" target="aYr2zcl_cZT3gbwT4TpR-66">
          <mxGeometry relative="1" as="geometry">
            <mxPoint x="170" y="260" as="sourcePoint" />
            <mxPoint x="260" y="370" as="targetPoint" />
          </mxGeometry>
        </mxCell>
        <mxCell id="aYr2zcl_cZT3gbwT4TpR-85" value="" style="endArrow=none;html=1;rounded=0;exitX=0.5;exitY=1;exitDx=0;exitDy=0;entryX=0;entryY=0.5;entryDx=0;entryDy=0;" edge="1" parent="1" source="aYr2zcl_cZT3gbwT4TpR-42" target="aYr2zcl_cZT3gbwT4TpR-72">
          <mxGeometry relative="1" as="geometry">
            <mxPoint x="170" y="260" as="sourcePoint" />
            <mxPoint x="260" y="350" as="targetPoint" />
          </mxGeometry>
        </mxCell>
        <mxCell id="aYr2zcl_cZT3gbwT4TpR-86" value="" style="endArrow=none;html=1;rounded=0;exitX=0.5;exitY=1;exitDx=0;exitDy=0;entryX=0.5;entryY=0;entryDx=0;entryDy=0;" edge="1" parent="1" source="aYr2zcl_cZT3gbwT4TpR-43" target="aYr2zcl_cZT3gbwT4TpR-45">
          <mxGeometry relative="1" as="geometry">
            <mxPoint x="110.00000000000045" y="310" as="sourcePoint" />
            <mxPoint x="70.00000000000045" y="569.9999999999998" as="targetPoint" />
          </mxGeometry>
        </mxCell>
        <mxCell id="aYr2zcl_cZT3gbwT4TpR-87" value="N" style="resizable=0;html=1;align=right;verticalAlign=bottom;" connectable="0" vertex="1" parent="aYr2zcl_cZT3gbwT4TpR-86">
          <mxGeometry x="1" relative="1" as="geometry" />
        </mxCell>
        <mxCell id="aYr2zcl_cZT3gbwT4TpR-90" value="Puede tener" style="shape=rhombus;perimeter=rhombusPerimeter;whiteSpace=wrap;html=1;align=center;" vertex="1" parent="1">
          <mxGeometry y="20" width="120" height="60" as="geometry" />
        </mxCell>
        <mxCell id="aYr2zcl_cZT3gbwT4TpR-91" value="Producto" style="whiteSpace=wrap;html=1;align=center;" vertex="1" parent="1">
          <mxGeometry x="-160" y="30" width="100" height="40" as="geometry" />
        </mxCell>
      </root>
    </mxGraphModel>
  </diagram>
</mxfile>
